<?xml version="1.0" encoding="UTF-8"?>
<svg width="140px" height="140px" viewBox="0 0 140 140" version="1.1" xmlns="http://www.w3.org/2000/svg" xmlns:xlink="http://www.w3.org/1999/xlink">
    <!-- Generator: Sketch 47.1 (45422) - http://www.bohemiancoding.com/sketch -->
    <title>ddn svg copy 6</title>
    <desc>Created with Sketch.</desc>
    <defs></defs>
    <g id="Page-1" stroke="none" stroke-width="1" fill="none" fill-rule="evenodd">
        <g id="ddn-svg-copy-6" fill-rule="nonzero">
            <circle id="Oval-2-Copy" fill="#FFFFFF" cx="70.14" cy="70.14" r="65.94"></circle>
            <circle id="Oval-2" fill="#044A84" cx="70.14" cy="70.14" r="50.54"></circle>
            <g id="Group" transform="translate(50.750000, 40.403597)" fill="#FFFFFF">
                <path d="M0,0.0564028777 L21.91,0.0564028777 C26.81,0.0564028777 30.59,0.406402878 33.18,1.17640288 C36.68,2.22640288 39.62,4.04640288 42.14,6.63640288 C44.59,9.22640285 46.48,12.4464029 47.81,16.2264029 C49.07,20.0064029 49.77,24.6964029 49.77,30.2264029 C49.77,35.1264029 49.14,39.3264029 47.95,42.8264029 C46.48,47.1664029 44.38,50.6664029 41.58,53.3264029 C39.48,55.3564028 36.68,56.8964028 33.18,58.0864028 C30.52,58.9264028 27.02,59.3464028 22.61,59.3464028 L0,59.3464028 L0,0.0564028777 Z M11.97,10.0664028 L11.97,49.3364028 L20.93,49.3364028 C24.29,49.3364028 26.67,49.1264029 28.14,48.7764029 C30.1,48.2864029 31.71,47.4464028 32.97,46.3264029 C34.23,45.1364028 35.28,43.2464029 36.12,40.5864029 C36.96,37.9264029 37.31,34.2864029 37.31,29.7364029 C37.31,25.1864029 36.89,21.6164028 36.12,19.1664029 C35.28,16.7164028 34.16,14.8264028 32.69,13.4264028 C31.22,12.0264028 29.4,11.1164029 27.16,10.6264028 C25.48,10.2764028 22.19,10.0664028 17.36,10.0664028 L11.97,10.0664028 Z" id="Shape"></path>
            </g>
            <path d="M70,140 C31.36,140 0,108.64 0,70 C0,31.36 31.36,0 70,0 C108.64,0 140,31.36 140,70 C140,108.64 108.64,140 70,140 Z M70.42,133.35 C105.63,133.35 134.19,104.79 134.19,69.58 C134.19,34.37 105.63,5.81 70.42,5.81 C35.21,5.81 6.65,34.37 6.65,69.58 C6.65,104.79 35.21,133.35 70.42,133.35 Z" id="Combined-Shape-Copy-3" fill="#044A84"></path>
            <rect id="Rectangle-9" fill="#FFFFFF" x="40.6" y="40.46" width="11.62" height="8.26"></rect>
            <rect id="Rectangle-9-Copy" fill="#FFFFFF" x="40.6" y="91.49" width="11.62" height="8.26"></rect>
            <rect id="Rectangle-9-Copy-2" fill="#FFFFFF" x="56.35" y="28.98" width="7.49" height="14.07"></rect>
            <rect id="Rectangle-9-Copy-3" fill="#FFFFFF" x="69.58" y="28.98" width="7.49" height="14.07"></rect>
            <rect id="Rectangle-9-Copy-4" fill="#FFFFFF" x="69.58" y="99.4" width="7.49" height="14.07"></rect>
            <rect id="Rectangle-9-Copy-5" fill="#FFFFFF" x="56.35" y="99.4" width="7.49" height="14.07"></rect>
            <path d="M47.32,91.49 C47.11,91.98 46.97,92.54 46.97,93.17 C46.97,95.48 48.79,97.3 51.1,97.3 C53.41,97.3 55.23,95.48 55.23,93.17 C55.23,90.86 53.41,89.04 51.1,89.04 C50.96,89.04 50.89,89.04 50.75,89.04 C50.12,90.37 48.86,91.35 47.32,91.49 Z" id="Combined-Shape" fill="#FFFFFF"></path>
            <path d="M47.6,48.72 C47.39,48.23 47.25,47.67 47.25,47.04 C47.25,44.73 49.07,42.91 51.38,42.91 C53.69,42.91 55.51,44.73 55.51,47.04 C55.51,49.35 53.69,51.17 51.38,51.17 C51.24,51.17 51.17,51.17 51.03,51.17 C50.4,49.84 49.14,48.86 47.6,48.72 Z" id="Combined-Shape-Copy-4" fill="#FFFFFF"></path>
        </g>
    </g>
</svg>