<?xml version="1.0" encoding="UTF-8"?>
<svg width="800px" height="600px" viewBox="0 0 800 600" version="1.1" xmlns="http://www.w3.org/2000/svg" xmlns:xlink="http://www.w3.org/1999/xlink">
    <g stroke="none" stroke-width="1" fill="none" fill-rule="evenodd">
        <g stroke="#FFFFFF" stroke-width="1" opacity="0.2">
            <path d="M0,300 L800,300"></path>
            <path d="M400,0 L400,600"></path>
            <circle cx="400" cy="300" r="100"></circle>
            <circle cx="400" cy="300" r="200"></circle>
            <circle cx="400" cy="300" r="300"></circle>
            <path d="M0,0 L800,600"></path>
            <path d="M800,0 L0,600"></path>
            <path d="M0,150 L800,150"></path>
            <path d="M0,450 L800,450"></path>
            <path d="M200,0 L200,600"></path>
            <path d="M600,0 L600,600"></path>
            <path d="M100,100 L700,500"></path>
            <path d="M700,100 L100,500"></path>
            <path d="M300,50 L500,550"></path>
            <path d="M500,50 L300,550"></path>
            <path d="M50,200 L750,400"></path>
            <path d="M750,200 L50,400"></path>
        </g>
    </g>
</svg>
